<!-- icon666.com - MILLIONS vector ICONS FREE --><svg viewBox="0 0 64 64" xmlns="http://www.w3.org/2000/svg"><g id="Icons"><g><path d="m52 56h-40c-2.209 0-4-1.791-4-4v-40c0-2.209 1.791-4 4-4h40c2.209 0 4 1.791 4 4v40c0 2.209-1.791 4-4 4z" fill="#00a0c8"></path><g><path d="m50 52h-36c-1.105 0-2-.895-2-2v-36c0-1.105.895-2 2-2h36c1.105 0 2 .895 2 2v36c0 1.105-.895 2-2 2z" fill="#fab400"></path><path d="m50 12h-36c-1.105 0-2 .895-2 2v1c0-1.105.895-2 2-2h36c1.105 0 2 .895 2 2v-1c0-1.105-.895-2-2-2z" fill="#dc9600"></path><path d="m12 36 10.586-10.586c.781-.781 2.047-.781 2.828 0l15.086 15.086v11.5h-26.5c-1.105 0-2-.895-2-2z" fill="#00325a"></path><path d="m39.5 39.5-12.5 12.5h13.5v-11.5z" fill="#00143c"></path><path d="m28 52 16.586-16.586c.781-.781 2.047-.781 2.828 0l4.586 4.586v10c0 1.105-.895 2-2 2z" fill="#0a5078"></path><path d="m43.295 25.968c-1.169.091-2.313-.328-3.124-1.14-.755-.756-1.171-1.76-1.171-2.828s.416-2.072 1.171-2.828c.811-.812 1.953-1.227 3.124-1.14.458.036.869-.24 1.018-.668s-.008-.902-.383-1.156c-1.163-.79-2.522-1.208-3.93-1.208-3.86 0-7 3.141-7 7s3.14 7 7 7c1.408 0 2.767-.418 3.931-1.208.375-.254.532-.729.383-1.156s-.56-.703-1.019-.668z" fill="#c80a50"></path></g></g></g></svg>