<!-- icon666.com - MILLIONS vector ICONS FREE --><svg viewBox="0 0 378.038 378.038" xmlns="http://www.w3.org/2000/svg"><g><circle cx="189.019" cy="189.019" fill="#feed50" r="189.019"></circle><path d="m48.146 63.006h281.746c-34.61-38.665-84.896-63.006-140.873-63.006s-106.263 24.341-140.873 63.006z" fill="#fa1016"></path><path d="m10.771 126.013h356.497c-8.299-23.478-21.101-44.826-37.375-63.006h-281.747c-16.274 18.18-29.076 39.527-37.375 63.006z" fill="#fb8b31"></path><path d="m10.771 252.025h356.497c6.967-19.709 10.771-40.912 10.771-63.006h-378.039c0 22.094 3.804 43.297 10.771 63.006z" fill="#1b802a"></path><path d="m48.146 315.031h281.746c16.274-18.18 29.076-39.528 37.375-63.006h-356.496c8.299 23.479 21.101 44.826 37.375 63.006z" fill="#0852f5"></path><path d="m329.892 315.031h-281.746c34.61 38.666 84.896 63.006 140.873 63.006 55.977.001 106.263-24.34 140.873-63.006z" fill="#8c0784"></path></g></svg>