<!-- icon666.com - MILLIONS vector ICONS FREE --><svg viewBox="0 0 64 64" xmlns="http://www.w3.org/2000/svg"><g id="Icons"><g><g><path d="m48 44h-32c-2.209 0-4-1.791-4-4v-32c0-2.209 1.791-4 4-4h26.757c.796 0 1.559.316 2.121.879l6.243 6.243c.563.562.879 1.325.879 2.121v26.757c0 2.209-1.791 4-4 4z" fill="#00a0c8"></path></g><g><path d="m40 16h-22c-1.105 0-2-.895-2-2v-10h26v10c0 1.105-.895 2-2 2z" fill="#0082aa"></path></g><g><path d="m39 16h-16c-1.105 0-2-.895-2-2v-10h20v10c0 1.105-.895 2-2 2z" fill="#00648c"></path></g><g><path d="m40 16h-16c-1.105 0-2-.895-2-2v-10h20v10c0 1.105-.895 2-2 2z" fill="#fab400"></path></g><g><path d="m16 26h32v18h-32z" fill="#fab400"></path></g><g><path d="m35 32h-4c-1.105 0-2 .895-2 2v10h8v-10c0-1.105-.895-2-2-2z" fill="#dc9600"></path></g><g><path d="m48 26h-32v-4c0-1.105.895-2 2-2h28c1.105 0 2 .895 2 2z" fill="#0a5078"></path></g><g><path d="m46 20h-28c-1.105 0-2 .895-2 2v1c0-1.105.895-2 2-2h28c1.105 0 2 .895 2 2v-1c0-1.105-.895-2-2-2z" fill="#00325a"></path></g><g><path d="m39 14h-2c-.552 0-1-.448-1-1v-6c0-.552.448-1 1-1h2c.552 0 1 .448 1 1v6c0 .552-.448 1-1 1z" fill="#0a5078"></path></g><g><path d="m43 32h-22c-.552 0-1-.448-1-1 0-.552.448-1 1-1h22c.552 0 1 .448 1 1 0 .552-.448 1-1 1z" fill="#dc9600"></path></g><g><path d="m43 36h-22c-.552 0-1-.448-1-1 0-.552.448-1 1-1h22c.552 0 1 .448 1 1 0 .552-.448 1-1 1z" fill="#dc9600"></path></g><g><path d="m43 40h-22c-.552 0-1-.448-1-1 0-.552.448-1 1-1h22c.552 0 1 .448 1 1 0 .552-.448 1-1 1z" fill="#dc9600"></path></g><path d="m41.848 49.235c-.31-.748-1.039-1.235-1.848-1.235h-4v-14c0-1.105-.895-2-2-2h-4c-1.105 0-2 .895-2 2v14h-4c-.809 0-1.538.487-1.848 1.235-.31.747-.139 1.607.434 2.179l8 8c.39.391.902.586 1.414.586s1.024-.195 1.414-.586l8-8c.572-.572.743-1.432.434-2.179z" fill="#c80a50"></path></g></g></svg>